<?xml version="1.0" standalone="no"?>
<!DOCTYPE svg PUBLIC "-//W3C//DTD SVG 20010904//EN"
 "http://www.w3.org/TR/2001/REC-SVG-20010904/DTD/svg10.dtd">
<svg version="1.0" xmlns="http://www.w3.org/2000/svg"
 width="667.000000pt" height="667.000000pt" viewBox="0 0 667.000000 667.000000"
 preserveAspectRatio="xMidYMid meet">
<metadata>
Created by potrace 1.14, written by Peter Selinger 2001-2017
</metadata>
<g transform="translate(0.000000,667.000000) scale(0.100000,-0.100000)"
fill="#000000" stroke="none">
<path d="M0 3335 l0 -3335 3335 0 3335 0 0 3335 0 3335 -3335 0 -3335 0 0
-3335z m2303 988 c897 -1808 1267 -2556 1267 -2559 0 -2 -178 -4 -395 -4
l-395 0 -596 1191 c-327 655 -594 1200 -592 1210 4 25 362 839 369 839 3 0
157 -305 342 -677z m2537 582 c0 -3 -18 -29 -41 -57 -81 -103 -176 -332 -229
-553 -113 -474 -132 -1100 -50 -1640 51 -335 162 -658 280 -815 23 -31 36 -56
30 -58 -24 -8 -209 21 -285 45 -514 161 -917 751 -953 1395 -19 342 36 639
169 918 177 371 489 651 822 737 52 13 111 21 240 32 9 0 17 -1 17 -4z m961
-31 c237 -63 419 -197 506 -371 119 -239 -27 -520 -292 -561 -278 -44 -508
223 -425 493 55 177 55 179 43 259 -11 80 -38 143 -81 190 l-27 28 93 -7 c51
-3 133 -17 183 -31z m436 -3111 c-2 -2 -189 -2 -416 -1 l-411 3 72 55 c116 88
345 323 440 450 133 180 251 389 304 540 6 15 10 -185 12 -509 1 -294 1 -536
-1 -538z m-5242 666 c197 -304 377 -500 574 -628 l64 -41 -698 0 -698 0 114
113 c176 172 382 440 493 640 21 37 41 67 45 67 4 0 52 -68 106 -151z"/>
</g>
</svg>
